<svg width="1600" height="1000" viewBox="0 0 1600 1000" fill="none" xmlns="http://www.w3.org/2000/svg">
  <rect width="1600" height="1000" rx="40" fill="#07101C"/>
  <rect x="36" y="36" width="1528" height="928" rx="32" fill="#0B1324" stroke="rgba(255,255,255,0.08)"/>
  <rect x="72" y="72" width="1456" height="68" rx="18" fill="#0E172A" stroke="rgba(255,255,255,0.06)"/>
  <circle cx="110" cy="106" r="10" fill="#FB7185"/>
  <circle cx="140" cy="106" r="10" fill="#FBBF24"/>
  <circle cx="170" cy="106" r="10" fill="#4ADE80"/>
  <rect x="224" y="90" width="220" height="32" rx="10" fill="rgba(255,255,255,0.06)"/>
  <rect x="1220" y="88" width="88" height="36" rx="12" fill="#0F2239"/>
  <rect x="1318" y="88" width="88" height="36" rx="12" fill="#0F2239"/>
  <rect x="1416" y="88" width="76" height="36" rx="12" fill="#10253F"/>

  <rect x="72" y="176" width="228" height="740" rx="26" fill="#0D172B" stroke="rgba(255,255,255,0.06)"/>
  <rect x="96" y="212" width="180" height="44" rx="14" fill="rgba(34,211,238,0.12)" stroke="rgba(34,211,238,0.22)"/>
  <rect x="96" y="270" width="180" height="44" rx="14" fill="rgba(255,255,255,0.04)"/>
  <rect x="96" y="328" width="180" height="44" rx="14" fill="rgba(255,255,255,0.04)"/>
  <rect x="96" y="426" width="180" height="120" rx="18" fill="rgba(255,255,255,0.03)"/>

  <rect x="336" y="176" width="780" height="348" rx="28" fill="#0D172B" stroke="rgba(255,255,255,0.06)"/>
  <rect x="372" y="214" width="180" height="112" rx="24" fill="#101B31"/>
  <rect x="570" y="214" width="180" height="112" rx="24" fill="#101B31"/>
  <rect x="768" y="214" width="180" height="112" rx="24" fill="#101B31"/>
  <rect x="966" y="214" width="114" height="112" rx="24" fill="#101B31"/>
  <rect x="372" y="362" width="708" height="126" rx="24" fill="#101B31"/>
  <rect x="408" y="398" width="540" height="20" rx="10" fill="url(#line1)"/>
  <rect x="408" y="432" width="420" height="20" rx="10" fill="url(#line2)"/>

  <rect x="336" y="554" width="780" height="362" rx="28" fill="#0D172B" stroke="rgba(255,255,255,0.06)"/>
  <rect x="372" y="594" width="326" height="284" rx="22" fill="#101B31"/>
  <rect x="722" y="594" width="358" height="80" rx="20" fill="#101B31"/>
  <rect x="722" y="690" width="358" height="80" rx="20" fill="#101B31"/>
  <rect x="722" y="786" width="358" height="92" rx="20" fill="#101B31"/>
  <circle cx="1258" cy="278" r="110" fill="url(#glow1)" opacity="0.7"/>
  <circle cx="1310" cy="714" r="130" fill="url(#glow2)" opacity="0.7"/>

  <defs>
    <linearGradient id="line1" x1="408" y1="408" x2="948" y2="408" gradientUnits="userSpaceOnUse">
      <stop stop-color="#22D3EE"/>
      <stop offset="1" stop-color="#A855F7"/>
    </linearGradient>
    <linearGradient id="line2" x1="408" y1="442" x2="828" y2="442" gradientUnits="userSpaceOnUse">
      <stop stop-color="#A855F7"/>
      <stop offset="1" stop-color="#34D399"/>
    </linearGradient>
    <radialGradient id="glow1" cx="0" cy="0" r="1" gradientUnits="userSpaceOnUse" gradientTransform="translate(1258 278) rotate(90) scale(110)">
      <stop stop-color="#22D3EE" stop-opacity="0.55"/>
      <stop offset="1" stop-color="#22D3EE" stop-opacity="0"/>
    </radialGradient>
    <radialGradient id="glow2" cx="0" cy="0" r="1" gradientUnits="userSpaceOnUse" gradientTransform="translate(1310 714) rotate(90) scale(130)">
      <stop stop-color="#A855F7" stop-opacity="0.45"/>
      <stop offset="1" stop-color="#A855F7" stop-opacity="0"/>
    </radialGradient>
  </defs>
</svg>
