<svg width="1600" height="1000" viewBox="0 0 1600 1000" fill="none" xmlns="http://www.w3.org/2000/svg">
  <rect width="1600" height="1000" rx="40" fill="#07101C"/>
  <rect x="36" y="36" width="1528" height="928" rx="32" fill="#0B1324" stroke="rgba(255,255,255,0.08)"/>
  <rect x="72" y="72" width="1456" height="72" rx="18" fill="#0E172A"/>
  <rect x="104" y="92" width="180" height="30" rx="10" fill="rgba(255,255,255,0.06)"/>
  <rect x="1312" y="88" width="180" height="38" rx="12" fill="#12233A"/>

  <rect x="72" y="180" width="402" height="736" rx="28" fill="#0D172B" stroke="rgba(255,255,255,0.06)"/>
  <rect x="108" y="220" width="330" height="150" rx="22" fill="#101B31"/>
  <rect x="108" y="392" width="330" height="150" rx="22" fill="#101B31"/>
  <rect x="108" y="564" width="330" height="150" rx="22" fill="#101B31"/>
  <rect x="108" y="736" width="330" height="144" rx="22" fill="#101B31"/>

  <rect x="506" y="180" width="1022" height="200" rx="28" fill="#0D172B" stroke="rgba(255,255,255,0.06)"/>
  <rect x="542" y="220" width="190" height="50" rx="14" fill="rgba(251,191,36,0.12)" stroke="rgba(251,191,36,0.2)"/>
  <rect x="750" y="220" width="190" height="50" rx="14" fill="rgba(34,211,238,0.12)" stroke="rgba(34,211,238,0.2)"/>
  <rect x="958" y="220" width="190" height="50" rx="14" fill="rgba(52,211,153,0.12)" stroke="rgba(52,211,153,0.2)"/>
  <rect x="1166" y="220" width="326" height="50" rx="14" fill="#101B31"/>
  <rect x="542" y="298" width="950" height="46" rx="14" fill="#101B31"/>

  <rect x="506" y="410" width="490" height="506" rx="28" fill="#0D172B" stroke="rgba(255,255,255,0.06)"/>
  <rect x="542" y="450" width="418" height="134" rx="22" fill="#101B31"/>
  <rect x="542" y="608" width="418" height="118" rx="22" fill="#101B31"/>
  <rect x="542" y="748" width="418" height="132" rx="22" fill="#101B31"/>

  <rect x="1028" y="410" width="500" height="506" rx="28" fill="#0D172B" stroke="rgba(255,255,255,0.06)"/>
  <rect x="1064" y="450" width="428" height="76" rx="18" fill="#101B31"/>
  <rect x="1064" y="544" width="428" height="76" rx="18" fill="#101B31"/>
  <rect x="1064" y="638" width="428" height="76" rx="18" fill="#101B31"/>
  <rect x="1064" y="732" width="206" height="116" rx="20" fill="rgba(52,211,153,0.12)" stroke="rgba(52,211,153,0.2)"/>
  <rect x="1286" y="732" width="206" height="116" rx="20" fill="rgba(255,255,255,0.05)"/>

  <circle cx="1460" cy="200" r="120" fill="url(#glow1)" opacity="0.8"/>
  <circle cx="980" cy="892" r="150" fill="url(#glow2)" opacity="0.6"/>

  <defs>
    <radialGradient id="glow1" cx="0" cy="0" r="1" gradientUnits="userSpaceOnUse" gradientTransform="translate(1460 200) rotate(90) scale(120)">
      <stop stop-color="#22D3EE" stop-opacity="0.52"/>
      <stop offset="1" stop-color="#22D3EE" stop-opacity="0"/>
    </radialGradient>
    <radialGradient id="glow2" cx="0" cy="0" r="1" gradientUnits="userSpaceOnUse" gradientTransform="translate(980 892) rotate(90) scale(150)">
      <stop stop-color="#A855F7" stop-opacity="0.42"/>
      <stop offset="1" stop-color="#A855F7" stop-opacity="0"/>
    </radialGradient>
  </defs>
</svg>
