<svg xmlns="http://www.w3.org/2000/svg" viewBox="0 0 1254 1253" width="512" height="512">
<g transform="translate(0,1253) scale(0.1,-0.1)" fill="#333333" stroke="none">
<path d="M4642 8968 c-16 -4 -36 -16 -44 -25 -14 -15 -138 -323 -255 -628 -37
-97 -37 -124 -1 -162 l21 -23 1601 0 c947 0 1635 -4 1684 -10 211 -24 345 -83
468 -205 125 -124 177 -250 176 -435 -1 -192 -77 -373 -216 -515 -159 -161
-328 -248 -586 -301 -76 -16 -181 -19 -1045 -23 -949 -6 -961 -6 -1005 -27
-25 -12 -119 -66 -210 -121 -91 -55 -330 -200 -533 -322 l-368 -221 -247 2
-247 3 360 224 c371 231 644 404 939 593 l169 108 -732 0 c-787 0 -774 1 -801
-50 -10 -19 -104 -274 -415 -1135 -291 -805 -465 -1311 -465 -1353 0 -34 7
-49 34 -80 32 -34 39 -37 88 -37 51 0 61 5 258 131 239 153 813 510 1400 874
723 447 827 510 858 521 52 18 759 6 847 -15 211 -50 402 -139 544 -255 24
-20 258 -263 519 -541 262 -278 501 -530 533 -561 68 -67 190 -133 274 -149
41 -7 222 -10 579 -8 l519 3 -374 379 c-490 496 -950 943 -1025 993 -109 74
-246 134 -359 157 l-60 12 99 12 c341 42 617 146 910 342 322 216 551 513 670
870 105 316 112 617 21 935 -32 113 -138 328 -207 420 -245 324 -589 534 -997
607 -114 20 -146 20 -1733 22 -890 0 -1631 -2 -1646 -6z"/>
<path d="M4095 7638 c-18 -16 -46 -75 -91 -193 -86 -224 -86 -225 -73 -257 26
-62 -96 -59 1831 -56 l1753 3 58 23 c131 53 201 142 201 257 0 105 -52 172
-173 221 l-56 24 -1712 0 -1712 0 -26 -22z"/>
</g>
</svg>
